<?xml version="1.0" encoding="UTF-8" standalone="no"?>
<!DOCTYPE svg PUBLIC "-//W3C//DTD SVG 1.1//EN" "http://www.w3.org/Graphics/SVG/1.1/DTD/svg11.dtd">
<svg width="100%" height="100%" viewBox="0 0 1080 1080" version="1.1" xmlns="http://www.w3.org/2000/svg" xmlns:xlink="http://www.w3.org/1999/xlink" xml:space="preserve" xmlns:serif="http://www.serif.com/" style="fill-rule:evenodd;clip-rule:evenodd;stroke-linejoin:round;stroke-miterlimit:2;">
    <g transform="matrix(10.023,0,0,10.023,-2375.96,-1054.41)">
        <path fill="#e5e5e5" d="M311.565,202.15C313.135,200.315 314.804,200.037 314.804,200.037L314.804,198.628L311.706,196.233L312.692,195.106C315.228,192.007 313.395,189.894 309.733,186.372C306.071,182.852 308.748,181.019 308.748,181.019C310.156,180.174 309.17,179.33 309.17,179.33L307.337,177.921L314.406,176.444C314.406,176.444 315.435,176.527 312.269,172.85C311.417,171.867 306.633,166.933 309.17,159.89C309.17,159.89 313.865,149.912 314.804,145.24C315.683,140.866 315.549,135.622 314.804,131.857C314.141,128.51 313.069,124.688 310.332,122.651C307.385,120.459 298.972,118.854 297.124,118.701C296.372,118.638 295.951,120.635 295.951,120.635C295.951,120.635 292.189,115.235 291.344,116.08C290.5,116.925 291.843,121.996 291.843,121.996C291.843,121.996 290.857,123.968 288.04,124.954C285.222,125.941 270.15,131.857 270.15,131.857C270.15,131.857 267.895,132.42 268.178,135.097C267.05,136.929 266.769,138.337 267.333,138.618C267.895,138.9 267.754,139.886 267.754,139.886L269.023,139.886L269.727,141.718L273.108,140.168C273.108,140.168 272.595,138.793 274.094,138.759L275.221,138.759L275.784,140.168L270.15,142.985L270.431,143.689C270.431,143.689 273.39,143.126 275.644,146.79C275.644,146.79 277.052,146.507 276.912,145.662C276.912,145.662 277.616,141.295 283.813,141.718L287.899,142.422C287.899,142.422 289.73,143.268 287.757,145.24C285.786,147.212 273.249,160.875 273.249,160.875C273.249,160.875 269.867,163.129 270.996,169.469C272.122,175.808 272.262,177.217 272.262,177.217C272.262,177.217 273.108,177.78 274.517,177.921L272.685,179.33C272.685,179.33 271.7,180.174 273.108,181.019C273.108,181.019 275.784,182.852 272.122,186.372C268.459,189.894 266.628,192.007 269.163,195.106L270.15,196.233L267.05,198.628L267.05,200.037C267.05,200.037 268.741,200.318 270.291,202.15L311.565,202.15Z"/>
    </g>
</svg>
